<svg width="196" height="48" viewBox="0 0 196 48" fill="none" xmlns="http://www.w3.org/2000/svg">
<path d="M30.1305 28.43L27.9435 26.243C27.8882 26.1877 27.9075 26.095 27.9783 26.0641C28.7506 25.7307 29.4728 25.3008 30.1305 24.7923C30.3661 24.6095 30.5927 24.4177 30.8102 24.2156C31.4448 23.6261 32.0022 22.9554 32.4656 22.2191C32.4669 22.2165 32.4682 22.2152 32.4695 22.2127C32.7501 21.766 32.9972 21.2949 33.2058 20.8044C33.7091 19.6201 33.9897 18.3187 33.9949 16.9517C33.9949 16.9517 33.9949 16.9504 33.9949 16.9491C33.9949 16.9362 33.9949 16.9234 33.9949 16.9105C33.9949 15.5447 33.7207 14.2446 33.2238 13.0591C33.0577 12.6613 32.8659 12.2764 32.651 11.907C32.651 11.9044 32.6484 11.9031 32.6484 11.9018C31.6817 10.2413 30.249 8.8871 28.5305 8.01563C28.5241 8.01177 28.5163 8.00791 28.5099 8.00534C27.1802 7.33468 24.9326 6.95366 23.3442 6.94336C23.3223 6.94336 24.0496 6.94336 24.0277 6.94336C24.0058 6.94336 23.9852 6.94336 23.9634 6.94336H2.96967C1.32972 6.94336 0 8.27308 0 9.91303V31.0882C0 31.7743 0.0695112 32.445 0.202097 33.0925C0.202097 33.0937 0.202097 33.095 0.202097 33.0976C0.449248 34.305 0.915231 35.434 1.55628 36.4393C1.55628 36.4419 1.55885 36.4431 1.56014 36.4457C2.6337 38.1282 4.19899 39.4669 6.05263 40.2585C6.05906 40.2611 6.0655 40.2637 6.07193 40.2663C6.08609 40.2727 6.10154 40.2791 6.1157 40.2856C7.06955 40.6859 8.09806 40.9408 9.17548 41.0257C9.43679 41.0463 9.69939 41.0566 9.96585 41.0566C11.3406 41.0566 12.6498 40.7786 13.8405 40.2753C14.681 39.92 15.4637 39.4527 16.1691 38.8915C16.1704 38.8915 16.1717 38.8902 16.1729 38.8889C16.1858 38.8786 16.2 38.8683 16.2128 38.8567C16.2167 38.8542 16.2206 38.8503 16.2244 38.8477C17.1371 38.1101 17.9172 37.2155 18.5222 36.2037C19.3795 34.771 19.8879 33.1066 19.9291 31.3264V31.3225C19.9304 31.2453 19.9317 31.168 19.9317 31.0908C19.9317 31.0135 19.9317 30.9363 19.9291 30.8591V27.2998C19.9291 27.1467 20.1145 27.0694 20.2226 27.1776L29.2488 36.2037L31.3611 38.3161C32.3356 39.2905 34 38.6006 34 37.2232V33.4091C34 32.7037 33.7194 32.0266 33.2199 31.5272L30.1254 28.4326L30.1305 28.43ZM24.0239 20.8044H14.5163C14.1442 20.8044 13.8417 21.1056 13.8417 21.4789V31.1719V31.1732C13.7195 33.8918 10.9841 35.6528 8.47265 34.6011C7.11589 34.0334 6.19808 32.7243 6.1157 31.2427V13.6538C6.1157 13.3294 6.37959 13.0655 6.70397 13.0655L14.8316 13.0603C14.8316 13.0603 14.8316 13.0629 14.8303 13.0642C16.5359 13.0642 18.2969 13.0642 19.9317 13.0642C21.4584 13.0642 22.8756 13.0642 24.0341 13.0668C26.1311 13.0694 27.8611 14.8149 27.8689 16.9053C27.8766 19.0486 26.1761 20.7748 24.0239 20.8057V20.8044Z" fill="white"/>
<path d="M58.152 42L71.976 8.4H75.816L89.544 42H83.592L72.84 14.784H74.856L64.008 42H58.152ZM64.968 35.52V30.72H82.776V35.52H64.968ZM93.6311 42V18.96H98.9111V42H93.6311ZM98.9111 29.184L97.0871 28.272C97.0871 25.36 97.7271 23.008 99.0071 21.216C100.319 19.392 102.287 18.48 104.911 18.48C106.063 18.48 107.103 18.688 108.031 19.104C108.959 19.52 109.823 20.192 110.623 21.12L107.167 24.672C106.751 24.224 106.287 23.904 105.775 23.712C105.263 23.52 104.671 23.424 103.999 23.424C102.527 23.424 101.311 23.888 100.351 24.816C99.3911 25.744 98.9111 27.2 98.9111 29.184ZM116.729 42V9.36H122.009V42H116.729ZM111.209 23.76V18.96H127.529V23.76H111.209ZM131.366 42V7.44H136.646V42H131.366ZM152.17 42.48C150.09 42.48 148.202 41.952 146.506 40.896C144.842 39.84 143.514 38.416 142.522 36.624C141.562 34.8 141.082 32.768 141.082 30.528C141.082 28.256 141.562 26.224 142.522 24.432C143.514 22.608 144.842 21.168 146.506 20.112C148.202 19.024 150.09 18.48 152.17 18.48C153.93 18.48 155.482 18.864 156.826 19.632C158.202 20.368 159.29 21.392 160.09 22.704C160.89 24.016 161.29 25.504 161.29 27.168V33.792C161.29 35.456 160.89 36.944 160.09 38.256C159.322 39.568 158.25 40.608 156.874 41.376C155.498 42.112 153.93 42.48 152.17 42.48ZM153.034 37.488C154.986 37.488 156.554 36.832 157.738 35.52C158.954 34.208 159.562 32.528 159.562 30.48C159.562 29.104 159.29 27.888 158.746 26.832C158.202 25.776 157.434 24.96 156.442 24.384C155.482 23.776 154.346 23.472 153.034 23.472C151.754 23.472 150.618 23.776 149.626 24.384C148.666 24.96 147.898 25.776 147.322 26.832C146.778 27.888 146.506 29.104 146.506 30.48C146.506 31.856 146.778 33.072 147.322 34.128C147.898 35.184 148.666 36.016 149.626 36.624C150.618 37.2 151.754 37.488 153.034 37.488ZM159.226 42V35.808L160.138 30.192L159.226 24.624V18.96H164.506V42H159.226ZM182.702 42.48C180.942 42.48 179.374 42.112 177.998 41.376C176.622 40.608 175.534 39.568 174.734 38.256C173.966 36.944 173.582 35.456 173.582 33.792V27.168C173.582 25.504 173.982 24.016 174.782 22.704C175.582 21.392 176.67 20.368 178.046 19.632C179.422 18.864 180.974 18.48 182.702 18.48C184.782 18.48 186.654 19.024 188.318 20.112C190.014 21.168 191.342 22.608 192.302 24.432C193.294 26.224 193.79 28.256 193.79 30.528C193.79 32.768 193.294 34.8 192.302 36.624C191.342 38.416 190.014 39.84 188.318 40.896C186.654 41.952 184.782 42.48 182.702 42.48ZM170.366 42V7.44H175.646V24.624L174.734 30.192L175.646 35.808V42H170.366ZM181.838 37.488C183.118 37.488 184.238 37.2 185.198 36.624C186.19 36.016 186.958 35.184 187.502 34.128C188.078 33.072 188.366 31.856 188.366 30.48C188.366 29.104 188.078 27.888 187.502 26.832C186.958 25.776 186.19 24.96 185.198 24.384C184.238 23.776 183.118 23.472 181.838 23.472C180.558 23.472 179.422 23.776 178.43 24.384C177.438 24.96 176.67 25.776 176.126 26.832C175.582 27.888 175.31 29.104 175.31 30.48C175.31 31.856 175.582 33.072 176.126 34.128C176.67 35.184 177.438 36.016 178.43 36.624C179.422 37.2 180.558 37.488 181.838 37.488Z" fill="white"/>
</svg>
