<svg width="202" height="48" viewBox="0 0 202 48" fill="none" xmlns="http://www.w3.org/2000/svg">
<path d="M30.1305 28.4301L27.9435 26.243C27.8882 26.1877 27.9075 26.095 27.9783 26.0641C28.7506 25.7307 29.4728 25.3008 30.1305 24.7923C30.3661 24.6095 30.5927 24.4177 30.8102 24.2156C31.4448 23.6261 32.0022 22.9554 32.4656 22.2191C32.4669 22.2165 32.4682 22.2152 32.4695 22.2127C32.7501 21.766 32.9972 21.2949 33.2058 20.8044C33.7091 19.6201 33.9897 18.3187 33.9948 16.9517C33.9948 16.9517 33.9948 16.9504 33.9948 16.9491C33.9948 16.9362 33.9948 16.9234 33.9948 16.9105C33.9948 15.5447 33.7207 14.2446 33.2238 13.0591C33.0577 12.6613 32.8659 12.2764 32.651 11.907C32.651 11.9044 32.6484 11.9031 32.6484 11.9018C31.6817 10.2413 30.249 8.8871 28.5305 8.01563C28.5241 8.01177 28.5163 8.00791 28.5099 8.00534C27.1802 7.33468 24.9326 6.95366 23.3442 6.94336C23.3223 6.94336 24.0496 6.94336 24.0277 6.94336C24.0058 6.94336 23.9852 6.94336 23.9634 6.94336H2.96967C1.32972 6.94336 0 8.27308 0 9.91303V31.0882C0 31.7743 0.0695112 32.445 0.202097 33.0925C0.202097 33.0937 0.202097 33.095 0.202097 33.0976C0.449248 34.305 0.915231 35.4339 1.55628 36.4393C1.55628 36.4419 1.55885 36.4432 1.56014 36.4457C2.6337 38.1282 4.19899 39.4669 6.05263 40.2585C6.05906 40.2611 6.0655 40.2637 6.07193 40.2663C6.08609 40.2727 6.10154 40.2791 6.1157 40.2856C7.06955 40.6859 8.09806 40.9408 9.17548 41.0257C9.43679 41.0463 9.69939 41.0566 9.96585 41.0566C11.3406 41.0566 12.6498 40.7786 13.8405 40.2753C14.681 39.92 15.4637 39.4527 16.1691 38.8915C16.1704 38.8915 16.1717 38.8902 16.1729 38.8889C16.1858 38.8786 16.2 38.8683 16.2128 38.8567C16.2167 38.8542 16.2206 38.8503 16.2244 38.8477C17.1371 38.1101 17.9172 37.2155 18.5222 36.2037C19.3795 34.771 19.8879 33.1066 19.9291 31.3264V31.3225C19.9304 31.2453 19.9317 31.168 19.9317 31.0908C19.9317 31.0136 19.9317 30.9363 19.9291 30.8591V27.2998C19.9291 27.1467 20.1145 27.0694 20.2226 27.1776L29.2488 36.2037L31.3611 38.3161C32.3356 39.2905 34 38.6006 34 37.2232V33.4091C34 32.7037 33.7194 32.0266 33.2199 31.5272L30.1254 28.4326L30.1305 28.4301ZM24.0239 20.8044H14.5163C14.1442 20.8044 13.8417 21.1056 13.8417 21.4789V31.1719V31.1732C13.7195 33.8918 10.9841 35.6528 8.47265 34.6011C7.11589 34.0334 6.19808 32.7243 6.1157 31.2427V13.6538C6.1157 13.3294 6.37959 13.0655 6.70397 13.0655L14.8316 13.0603C14.8316 13.0603 14.8316 13.0629 14.8303 13.0642C16.5359 13.0642 18.2969 13.0642 19.9317 13.0642C21.4584 13.0642 22.8756 13.0642 24.0341 13.0668C26.1311 13.0694 27.8611 14.8149 27.8689 16.9053C27.8766 19.0486 26.1761 20.7748 24.0239 20.8057V20.8044Z" fill="#6271EB"/>
<path d="M57.72 42L71.16 8.112H77.976L91.272 42H83.304L73.128 13.872H75.864L65.544 42H57.72ZM65.352 35.856V29.712H83.832V35.856H65.352ZM94.6076 42V18.672H101.952V42H94.6076ZM101.952 29.184L98.8796 26.784C99.4876 24.064 100.512 21.952 101.952 20.448C103.392 18.944 105.392 18.192 107.952 18.192C109.072 18.192 110.048 18.368 110.88 18.72C111.744 19.04 112.496 19.552 113.136 20.256L108.768 25.776C108.448 25.424 108.048 25.152 107.568 24.96C107.088 24.768 106.544 24.672 105.936 24.672C104.72 24.672 103.744 25.056 103.008 25.824C102.304 26.56 101.952 27.68 101.952 29.184ZM118.638 42V9.024H125.982V42H118.638ZM113.358 24.912V18.672H131.262V24.912H113.358ZM134.498 42V7.152H141.842V42H134.498ZM156.758 42.48C154.614 42.48 152.694 41.952 150.998 40.896C149.334 39.84 148.006 38.4 147.014 36.576C146.054 34.752 145.574 32.672 145.574 30.336C145.574 28 146.054 25.92 147.014 24.096C148.006 22.272 149.334 20.832 150.998 19.776C152.694 18.72 154.614 18.192 156.758 18.192C158.326 18.192 159.734 18.496 160.982 19.104C162.262 19.712 163.302 20.56 164.102 21.648C164.902 22.704 165.35 23.92 165.446 25.296V35.376C165.35 36.752 164.902 37.984 164.102 39.072C163.334 40.128 162.31 40.96 161.03 41.568C159.75 42.176 158.326 42.48 156.758 42.48ZM158.246 35.856C159.814 35.856 161.078 35.344 162.038 34.32C162.998 33.264 163.478 31.936 163.478 30.336C163.478 29.248 163.254 28.288 162.806 27.456C162.39 26.624 161.782 25.984 160.982 25.536C160.214 25.056 159.318 24.816 158.294 24.816C157.27 24.816 156.358 25.056 155.558 25.536C154.79 25.984 154.166 26.624 153.686 27.456C153.238 28.288 153.014 29.248 153.014 30.336C153.014 31.392 153.238 32.336 153.686 33.168C154.134 34 154.758 34.656 155.558 35.136C156.358 35.616 157.254 35.856 158.246 35.856ZM163.19 42V35.712L164.294 30.048L163.19 24.384V18.672H170.39V42H163.19ZM189.001 42.48C187.433 42.48 185.993 42.16 184.681 41.52C183.369 40.848 182.297 39.968 181.465 38.88C180.633 37.76 180.153 36.512 180.025 35.136V25.296C180.153 23.92 180.633 22.704 181.465 21.648C182.297 20.56 183.369 19.712 184.681 19.104C185.993 18.496 187.433 18.192 189.001 18.192C191.209 18.192 193.161 18.72 194.857 19.776C196.585 20.832 197.929 22.272 198.889 24.096C199.881 25.92 200.377 28 200.377 30.336C200.377 32.672 199.881 34.752 198.889 36.576C197.929 38.4 196.585 39.84 194.857 40.896C193.161 41.952 191.209 42.48 189.001 42.48ZM175.561 42V7.152H182.905V24.384L181.705 30.048L182.809 35.712V42H175.561ZM187.705 35.856C188.729 35.856 189.625 35.616 190.393 35.136C191.193 34.656 191.817 34 192.265 33.168C192.713 32.336 192.937 31.392 192.937 30.336C192.937 29.248 192.713 28.288 192.265 27.456C191.817 26.624 191.193 25.984 190.393 25.536C189.625 25.056 188.729 24.816 187.705 24.816C186.681 24.816 185.769 25.056 184.969 25.536C184.169 25.984 183.545 26.624 183.097 27.456C182.681 28.288 182.473 29.248 182.473 30.336C182.473 31.424 182.697 32.384 183.145 33.216C183.593 34.048 184.201 34.704 184.969 35.184C185.769 35.632 186.681 35.856 187.705 35.856Z" fill="#6271EB"/>
</svg>
