<svg width="738" height="633" viewBox="0 0 738 633" fill="none" xmlns="http://www.w3.org/2000/svg">
<path opacity="0.2" d="M378.881 343.023V326.216L354.61 312.2V295.393L330.339 281.364V264.57L306.081 250.555L201.205 307.76L228.446 323.41V340.217L252.717 354.219V371.04L276.988 385.041V401.862L383.308 555.512C488.592 537.738 568.965 484.129 602.88 414.842C606.802 406.834 610.294 398.766 613.354 390.639L378.881 343.023Z" fill="#6271EB"/>
<path opacity="0.15" d="M229.385 15.3611C158.423 56.2218 100.892 165.729 100.892 260.008C100.892 316.028 121.213 354.069 152.649 367.145L165.629 359.654L293.25 285.982L306.557 278.3C337.761 229.199 357.933 167.976 357.933 112.133C357.878 17.8809 300.36 -25.4588 229.385 15.3611Z" fill="#6271EB"/>
<path opacity="0.15" d="M229.385 42.6288C169.756 76.9519 121.417 168.97 121.417 248.199C121.417 327.428 169.756 363.849 229.385 329.553C289.015 295.257 337.366 203.198 337.366 123.969C337.366 44.74 289.028 8.31946 229.385 42.6288Z" fill="#6271EB"/>
<path opacity="0.15" d="M229.385 61.8469C177.928 91.5663 136.209 171.272 136.209 239.877C136.209 308.482 177.928 340.04 229.385 310.335C280.842 280.629 322.561 200.91 322.561 132.291C322.561 63.6721 280.856 32.114 229.385 61.8469Z" fill="#6271EB"/>
<path d="M174.441 243.132C174.441 183.694 210.589 114.639 255.168 88.8832C274.822 77.5511 292.814 76.5024 306.802 83.9663L288.674 73.4787C274.508 65.3066 255.985 65.9876 235.773 77.6737C191.166 103.43 155.032 172.484 155.032 231.923C155.032 264.462 165.86 287.371 182.98 297.232C185.909 298.907 196.791 305.213 201.232 307.774C184.737 297.545 174.441 274.936 174.441 243.132Z" fill="#6271EB"/>
<path opacity="0.3" d="M174.441 243.132C174.441 183.694 210.589 114.639 255.168 88.8832C274.822 77.5511 292.814 76.5024 306.802 83.9663L288.674 73.4787C274.508 65.3066 255.985 65.9876 235.773 77.6737C191.166 103.43 155.032 172.484 155.032 231.923C155.032 264.462 165.86 287.371 182.98 297.232C185.909 298.907 196.791 305.213 201.232 307.774C184.737 297.545 174.441 274.936 174.441 243.132Z" fill="white"/>
<path d="M286.889 101.346C293.931 110.744 297.704 125.699 296.859 145.148C294.83 192.819 265.833 249.534 232.109 271.721C221.866 278.463 212.346 281.255 204.146 280.506C214.389 294.127 231.55 296.074 251.518 282.931C285.255 260.743 314.253 204.07 316.282 156.344C317.671 123.138 305.658 103.021 286.889 101.346Z" fill="#6271EB"/>
<path opacity="0.15" d="M286.889 101.346C293.931 110.744 297.704 125.699 296.859 145.148C294.83 192.819 265.833 249.534 232.109 271.721C221.866 278.463 212.346 281.255 204.146 280.506C214.389 294.127 231.55 296.074 251.518 282.931C285.255 260.743 314.253 204.07 316.282 156.344C317.671 123.138 305.658 103.021 286.889 101.346Z" fill="black"/>
<path d="M195.007 115.947L214.416 127.156L215.969 125.072L196.56 113.835C196.029 114.557 195.525 115.197 195.007 115.947Z" fill="#6271EB"/>
<path d="M186.1 180.861L166.623 169.679C166.351 170.428 166.092 171.204 165.833 171.967L185.242 183.176C185.514 182.386 185.759 181.61 186.1 180.861Z" fill="#6271EB"/>
<path d="M274.631 68.5347L294.054 79.785C294.844 79.9212 295.634 80.0574 296.41 80.2208L276.988 69.0114C276.211 68.8071 275.421 68.6573 274.631 68.5347Z" fill="#6271EB"/>
<path d="M177.178 213.781C177.328 212.936 177.492 212.078 177.655 211.234L158.246 200.024C158.069 200.869 157.906 201.713 157.756 202.571L177.178 213.781Z" fill="#6271EB"/>
<path d="M214.089 94.154L233.498 105.363C234.166 104.723 234.86 104.083 235.514 103.47L216.064 92.2607C215.424 92.8737 214.702 93.5138 214.089 94.154Z" fill="#6271EB"/>
<path d="M177.274 269.814C177.097 269.065 176.933 268.303 176.77 267.54L176.62 267.199L157.307 256.044C157.484 256.916 157.661 257.774 157.865 258.619L177.274 269.814Z" fill="#6271EB"/>
<path d="M257.701 69.0381C256.884 69.2015 256.04 69.4195 255.209 69.6238L274.631 80.8332C275.476 80.6153 276.32 80.4246 277.151 80.2612L257.701 69.0381Z" fill="#6271EB"/>
<path d="M256.38 88.2291L236.971 77.0605C236.563 77.2921 236.168 77.4828 235.773 77.7143L234.588 78.4362L253.997 89.6457L255.168 88.9238L256.38 88.2291Z" fill="#6271EB"/>
<path d="M178.554 142.438L197.963 153.647L199.107 151.522L179.698 140.313C179.29 140.994 178.922 141.702 178.554 142.438Z" fill="#6271EB"/>
<path d="M185.514 291.198C185.078 290.449 184.67 289.7 184.247 288.923L164.852 277.728C165.261 278.504 165.697 279.253 166.132 280.002L185.514 291.198Z" fill="#6271EB"/>
<path d="M155.032 232.141L174.441 243.364V243.132C174.441 242.302 174.441 241.444 174.441 240.599L155.019 229.39C155.019 230.234 155.019 231.092 155.019 231.923L155.032 232.141Z" fill="#6271EB"/>
<path d="M255.168 88.8832C210.589 114.639 174.441 183.694 174.441 243.132C174.441 302.571 210.589 329.907 255.168 304.165C299.747 278.422 335.923 209.368 335.923 149.916C335.923 90.4632 299.761 63.141 255.168 88.8832ZM316.241 156.344C314.212 204.015 285.214 260.73 251.477 282.917C217.74 305.105 192.066 284.415 194.095 236.704C196.124 188.992 225.149 132.318 258.859 110.131C292.569 87.9435 318.284 108.633 316.241 156.344Z" fill="#6271EB"/>
<g opacity="0.15">
<path d="M238.646 128.069C239.3 127.347 239.94 126.611 240.608 125.903L235.5 103.471C234.819 104.084 234.138 104.71 233.484 105.35L238.646 128.069Z" fill="black"/>
<path d="M253.983 89.5915V113.645C254.773 113.032 255.563 112.433 256.366 111.861V88.2158L255.168 88.8832L253.983 89.5915Z" fill="black"/>
<path d="M270.396 104.083C271.267 103.743 272.139 103.43 272.997 103.157L277.083 80.248C276.252 80.4115 275.408 80.6022 274.563 80.8065L270.396 104.083Z" fill="black"/>
<path d="M204.583 186.854L205.441 184.593L186.1 180.847C185.828 181.61 185.555 182.373 185.296 183.135L204.583 186.854Z" fill="black"/>
<path d="M213.748 165.592L214.838 163.413L199.093 151.509L197.962 153.647L213.748 165.592Z" fill="black"/>
<path d="M332.612 121.367L315.492 137.425C315.628 138.379 315.75 139.346 315.859 140.354L333.307 124.01C333.048 123.138 332.844 122.239 332.612 121.367Z" fill="black"/>
<path d="M194.68 228.927L174.468 240.586C174.468 241.444 174.468 242.288 174.468 243.133V243.364L194.435 231.841C194.476 230.874 194.585 229.894 194.68 228.927Z" fill="black"/>
<path d="M197.949 209.177C198.153 208.319 198.371 207.461 198.576 206.589L177.641 211.207C177.478 212.051 177.314 212.909 177.165 213.754L197.949 209.177Z" fill="black"/>
<path d="M286.481 101.332C287.312 101.4 288.115 101.495 288.905 101.632L296.424 80.1526C295.634 79.9892 294.844 79.8393 294.04 79.7031L286.481 101.332Z" fill="black"/>
<path d="M310.234 119.202C310.616 120.006 310.983 120.85 311.338 121.708L325.366 102.817C324.944 102.054 324.495 101.319 324.004 100.597L310.234 119.202Z" fill="black"/>
<path d="M300.319 106.549C300.959 107.039 301.586 107.557 302.198 108.115L312.768 87.8754C312.128 87.3714 311.487 86.8947 310.82 86.4316L300.319 106.549Z" fill="black"/>
<path d="M225.149 145.761L226.62 143.541L215.955 125.059L214.402 127.156L225.149 145.761Z" fill="black"/>
<path d="M272.111 264.516C271.471 265.265 270.749 265.987 270.164 266.695L275.271 289.196C275.952 288.583 276.633 287.916 277.287 287.276L272.111 264.516Z" fill="black"/>
<path d="M297.431 225.821C297.077 226.557 296.71 227.279 296.342 228.001L312.128 239.932L313.231 237.766L297.431 225.821Z" fill="black"/>
<path d="M285.908 246.224L284.438 248.458L295.129 266.981C295.647 266.287 296.178 265.619 296.682 264.897L285.908 246.224Z" fill="black"/>
<path d="M306.53 204.042C306.258 204.805 305.999 205.568 305.713 206.317L325.054 210.049C325.326 209.286 325.585 208.524 325.844 207.761L306.53 204.042Z" fill="black"/>
<path d="M312.918 181.446C312.741 182.304 312.564 183.162 312.359 184.007L333.198 179.444C333.348 178.586 333.484 177.741 333.634 176.897L312.918 181.446Z" fill="black"/>
<path d="M335.922 147.41L316.091 158.783C316.091 159.736 315.968 160.689 315.9 161.656L335.922 150.147V149.916C335.922 149.071 335.922 148.241 335.922 147.41Z" fill="black"/>
<path d="M256.366 303.443V279.417C255.576 280.03 254.773 280.629 253.983 281.201V304.846L255.168 304.165C255.563 303.933 255.971 303.675 256.366 303.443Z" fill="black"/>
<path d="M199.461 272.43C199.094 271.599 198.739 270.741 198.399 269.842L184.248 288.91C184.656 289.686 185.092 290.449 185.528 291.185L199.461 272.43Z" fill="black"/>
<path d="M209.172 285.846C208.546 285.328 207.933 284.783 207.334 284.198L196.71 304.519C197.336 305.037 197.977 305.527 198.63 306.004L209.172 285.846Z" fill="black"/>
<path d="M239.491 289.169C238.619 289.496 237.761 289.782 236.903 290.054L232.817 312.895C233.661 312.732 234.506 312.555 235.35 312.351L239.491 289.169Z" fill="black"/>
<path d="M223.078 291.661C222.261 291.58 221.471 291.457 220.681 291.307L213.245 312.691C214.035 312.882 214.825 313.031 215.615 313.168L223.078 291.661Z" fill="black"/>
<path d="M194.639 253.593C194.53 252.612 194.435 251.605 194.353 250.583L176.647 267.104C176.838 268.017 177.028 268.916 177.233 269.828L194.639 253.593Z" fill="black"/>
</g>
<path d="M276.96 401.876L184.697 348.608V298.172L204.119 309.381L228.418 323.424V340.231L252.689 354.233V371.054L276.96 385.055V401.876Z" fill="#263238"/>
<path d="M204.146 309.408L306.08 250.555L330.338 264.57L228.418 323.423L204.146 309.408Z" fill="#455A64"/>
<path d="M228.418 323.424V340.231L330.338 281.378V264.571L228.418 323.424Z" fill="#37474F"/>
<path d="M228.418 340.231L330.338 281.378L354.61 295.393L252.689 354.233L228.418 340.231Z" fill="#455A64"/>
<path d="M252.689 354.233V371.054L354.61 312.2V295.393L252.689 354.233Z" fill="#37474F"/>
<path d="M252.689 371.054L354.61 312.201L378.881 326.216L276.961 385.055L252.689 371.054Z" fill="#455A64"/>
<path d="M276.96 385.055V401.876L378.881 343.023V326.216L276.96 385.055Z" fill="#37474F"/>
<path d="M306.149 150.61C304.119 198.281 275.108 254.996 241.384 277.197C228.854 285.437 217.44 287.766 208.124 284.974C198.589 276.27 193.141 259.599 194.095 236.731C196.138 189.06 225.149 132.345 258.859 110.158C271.403 101.904 282.844 99.5887 292.147 102.394C301.736 111.111 307.129 127.728 306.149 150.61Z" fill="#6271EB"/>
<path opacity="0.9" d="M306.149 150.61C304.119 198.281 275.108 254.996 241.384 277.197C228.854 285.437 217.44 287.766 208.124 284.974C198.589 276.27 193.141 259.599 194.095 236.731C196.138 189.06 225.149 132.345 258.859 110.158C271.403 101.904 282.844 99.5887 292.147 102.394C301.736 111.111 307.129 127.728 306.149 150.61Z" fill="white"/>
<path opacity="0.1" d="M241.234 252.762C230.706 253.98 220.964 258.934 213.776 266.722C209.893 270.89 206.726 275.672 204.405 280.874C205.526 282.339 206.77 283.706 208.123 284.96C210.129 285.546 212.194 285.902 214.28 286.022C214.825 284.66 215.233 283.23 215.71 281.854C218.065 275.449 222.263 269.883 227.774 265.858C233.285 261.832 239.864 259.527 246.682 259.231C251.354 259.109 255.985 259.953 260.629 260.321C262.468 258.291 264.266 256.235 266.077 254.001C257.851 253.579 249.365 251.944 241.234 252.762ZM239.218 183.012C248.753 184.252 259.158 184.783 267.494 179.907C276.933 174.377 281.414 163.413 285.963 153.484C290.199 144.263 295.988 134.524 305.236 130.956C303.315 118.057 298.712 108.346 292.133 102.353C287.646 101.062 282.916 100.861 278.336 101.768C273.721 107.051 270.36 113.309 268.502 120.073C266.323 127.701 265.56 135.805 262.06 142.901C258.495 150.036 252.444 155.621 245.048 158.605C239.218 160.92 232.885 161.479 226.688 162.432C222.365 163.07 218.091 164.008 213.898 165.238C210.663 171.664 207.78 178.261 205.263 185.001C206.935 184.145 208.676 183.43 210.466 182.863C219.714 180.016 229.684 181.787 239.218 183.012ZM248.97 135.342C252.021 130.071 253.057 123.928 254.732 118.057C255.331 115.865 256.094 113.726 256.802 111.588C254.623 113.122 252.462 114.793 250.319 116.6C247.241 124.078 244.244 131.582 238.565 137.221C235.67 140.057 232.213 142.256 228.418 143.677C227.7 143.917 226.961 144.086 226.211 144.181C224.822 146.224 223.46 148.313 222.125 150.446C225.198 150.2 228.243 149.68 231.223 148.894C238.603 146.679 244.919 141.845 248.984 135.301L248.97 135.342ZM306.175 143.609C303.512 144.989 301.099 146.808 299.038 148.989C293.972 154.546 291.248 161.751 288.142 168.616C283.811 178.395 278.159 188.352 268.747 193.418C262.482 196.782 255.127 197.627 248.085 197.818C234.669 198.185 221.049 196.456 207.933 199.329C205.106 199.947 202.342 200.827 199.679 201.958C198.771 205.218 197.976 208.464 197.295 211.697C200.35 210.08 203.581 208.823 206.925 207.951C226.306 203.048 247.786 213.808 266.35 206.589C279.97 201.264 288.265 187.739 294.952 174.745C297.676 169.447 300.605 163.849 305.304 160.335C305.667 157.093 305.921 153.879 306.067 150.692C306.244 148.172 306.271 145.843 306.23 143.568L306.175 143.609ZM257.824 223.001C247.336 223.383 236.862 222.402 226.375 222.252C221.001 221.96 215.615 222.511 210.412 223.887C205.857 225.427 201.573 227.675 197.718 230.547C196.533 231.391 195.388 232.263 194.258 233.149C194.176 234.361 194.095 235.559 194.04 236.744C193.454 250.569 195.211 262.105 198.794 271.013C201.109 269.003 203.167 266.716 204.923 264.203C212.128 254.464 219.074 243.691 229.997 238.474C241.724 232.876 255.549 234.878 268.298 232.318C273.874 231.179 279.232 229.151 284.165 226.311C286.181 222.534 288.083 218.684 289.872 214.761C289.327 215.088 288.769 215.401 288.21 215.715C278.989 220.768 268.352 222.579 257.878 222.961L257.824 223.001Z" fill="#6271EB"/>
<path d="M368.796 129.845C368.796 134.476 367.925 138.589 362.259 139.583C368.061 139.828 368.47 143.669 368.796 149.036C368.987 143.71 369.491 139.828 374.749 139.583C369.328 138.684 368.796 134.476 368.796 129.845Z" fill="#6271EB"/>
<path d="M236.599 376.385C236.599 381.016 235.727 385.129 230.061 386.123C235.863 386.368 236.272 390.209 236.599 395.576C236.789 390.237 237.293 386.368 242.551 386.123C237.103 385.211 236.599 381.016 236.599 376.385Z" fill="#6271EB"/>
<path d="M194.008 233.699C194.008 235.729 193.627 237.513 191.148 237.949C193.681 238.058 193.872 239.76 194.008 242.035C194.09 239.706 194.308 237.949 196.61 237.949C194.226 237.554 194.008 235.729 194.008 233.699Z" fill="#6271EB"/>
<path d="M182.867 241.667C182.867 246.284 181.982 250.398 176.329 251.392C182.131 251.637 182.54 255.478 182.867 260.858C183.044 255.519 183.548 251.651 188.819 251.392C183.371 250.561 182.867 246.284 182.867 241.667Z" fill="#E0E0E0"/>
<path d="M177.555 218.458C177.555 220.842 177.105 222.939 174.204 223.457C177.173 223.579 177.391 225.568 177.555 228.305C177.65 225.581 177.909 223.579 180.619 223.457C177.813 222.994 177.555 220.842 177.555 218.458Z" fill="#E0E0E0"/>
<path d="M353.065 115.925C353.065 118.649 352.997 121.237 349.088 121.85C353.174 121.85 352.902 124.397 353.106 127.666C353.215 124.397 353.501 122.054 356.729 121.905C353.392 121.346 353.487 119.807 353.065 115.925Z" fill="#E0E0E0"/>
<path d="M387.034 241.98C386.748 247.088 386.339 249.295 381.722 249.907C386.421 250.166 386.816 253.285 387.089 257.63C387.238 253.285 387.62 250.125 391.91 249.907C387.497 249.199 387.388 247.156 387.034 241.98Z" fill="#E0E0E0"/>
<path d="M217.83 376.426C217.666 379.409 217.435 380.689 214.738 381.057C217.462 381.206 217.707 383.004 217.87 385.538C217.952 383.004 218.17 381.166 220.676 381.057C218.143 380.621 218.034 379.449 217.83 376.426Z" fill="#E0E0E0"/>
<path d="M377.391 125.105C377.391 126.753 377.391 128.333 374.98 128.701C377.486 128.701 377.295 130.24 377.418 132.215C377.486 130.24 377.65 128.823 379.597 128.728C377.581 128.387 377.636 127.461 377.391 125.105Z" fill="#E0E0E0"/>
<path d="M382.526 256.826C382.526 258.461 382.526 260.041 380.115 260.408C382.607 260.408 382.417 261.961 382.539 263.936C382.607 261.961 382.784 260.531 384.732 260.449C382.716 260.095 382.771 259.169 382.526 256.826Z" fill="#E0E0E0"/>
<path d="M230.401 369.929C230.401 371.564 230.401 373.144 227.99 373.511C230.496 373.511 230.306 375.05 230.428 377.025C230.496 375.05 230.673 373.634 232.621 373.539C230.633 373.212 230.687 372.272 230.401 369.929Z" fill="#E0E0E0"/>
<path d="M572.98 334.072L615.87 309.31L680.621 346.684L711.689 328.747L646.952 291.373L667.981 279.223L633.931 259.542L612.901 271.691L575.364 250.049L544.282 268L581.779 289.697L501.814 335.788L526.835 350.226L728.66 404.407L732.582 402.146C734.507 394.41 736.101 386.515 737.363 378.46L572.98 334.072Z" fill="#263238"/>
<path d="M577.012 144.084L575.405 145.01V92.6807L555.982 81.4713L531.956 95.3367L551.774 20.834L532.365 9.62451L498.954 28.9108L444.964 230.79V259.733L464.373 270.942L524.969 235.938V256.791L544.392 268L575.364 250.049V206.791L596.38 194.655V155.293L577.012 144.084ZM524.969 174.171L508.53 183.705L524.969 121.842V174.171Z" fill="#6271EB"/>
<path opacity="0.3" d="M577.012 144.084L575.405 145.01V92.6807L555.982 81.4713L531.956 95.3367L551.774 20.834L532.365 9.62451L498.954 28.9108L444.964 230.79V259.733L464.373 270.942L524.969 235.938V256.791L544.392 268L575.364 250.049V206.791L596.38 194.655V155.293L577.012 144.084ZM524.969 174.171L508.53 183.705L524.969 121.842V174.171Z" fill="black"/>
<path d="M575.391 167.428V92.6803L544.323 110.618V185.38L501.42 210.141L551.774 20.8335L518.363 40.1198L464.373 241.999V270.887L544.323 224.742V268L575.391 250.049V206.791L596.421 194.655V155.293L575.391 167.428Z" fill="#6271EB"/>
<path opacity="0.3" d="M575.391 167.428V92.6803L544.323 110.618V185.38L501.42 210.141L551.774 20.8335L518.363 40.1198L464.373 241.999V270.887L544.323 224.742V268L575.391 250.049V206.791L596.421 194.655V155.293L575.391 167.428Z" fill="white"/>
<path d="M551.774 20.834L532.365 9.62451L498.955 28.9108L518.363 40.1202L551.774 20.834Z" fill="#6271EB"/>
<path opacity="0.5" d="M551.774 20.834L532.365 9.62451L498.955 28.9108L518.363 40.1202L551.774 20.834Z" fill="white"/>
<path d="M555.982 81.4712L575.391 92.6806L544.323 110.618L530.077 102.392L531.956 95.3366L555.982 81.4712Z" fill="#6271EB"/>
<path opacity="0.5" d="M555.982 81.4712L575.391 92.6806L544.323 110.618L530.077 102.392L531.956 95.3366L555.982 81.4712Z" fill="white"/>
<path d="M544.324 185.38L524.901 174.17L508.462 183.664L501.42 210.141L544.324 185.38Z" fill="#6271EB"/>
<path opacity="0.5" d="M544.324 185.38L524.901 174.17L508.462 183.664L501.42 210.141L544.324 185.38Z" fill="white"/>
<path d="M596.421 155.293L577.012 144.083L575.391 145.01V167.429L596.421 155.293Z" fill="#6271EB"/>
<path opacity="0.5" d="M575.391 167.429L596.421 155.293L577.012 144.083L575.391 145.01V167.429Z" fill="white"/>
<path d="M464.373 241.999L444.964 230.79L498.954 28.9106L518.363 40.1201L464.373 241.999Z" fill="#6271EB"/>
<path opacity="0.15" d="M464.373 241.999L444.964 230.79L498.954 28.9106L518.363 40.1201L464.373 241.999Z" fill="black"/>
<path d="M223.655 507.816L189.564 488.135L168.548 500.271L131.079 478.642L99.9972 496.579L137.466 518.208L57.5156 564.367L82.536 578.818L284.374 633L317.785 613.714L128.654 562.665L171.558 537.89L236.295 575.277L267.376 557.326L202.626 519.952L223.655 507.816Z" fill="#263238"/>
<path d="M132.686 372.663L131.079 373.602V321.219L111.656 310.01L87.6302 323.943L107.448 249.44L88.0388 238.231L54.6283 257.49L0.637695 459.383V488.271L20.101 499.481L80.643 464.531V485.37L100.052 496.58L131.133 478.642V435.37L152.149 423.235V383.872L132.686 372.663ZM80.5885 402.75L64.1489 412.284L80.5885 350.475V402.75Z" fill="#6271EB"/>
<path opacity="0.3" d="M132.686 372.663L131.079 373.602V321.219L111.656 310.01L87.6302 323.943L107.448 249.44L88.0388 238.231L54.6283 257.49L0.637695 459.383V488.271L20.101 499.481L80.643 464.531V485.37L100.052 496.58L131.133 478.642V435.37L152.149 423.235V383.872L132.686 372.663ZM80.5885 402.75L64.1489 412.284L80.5885 350.475V402.75Z" fill="black"/>
<path d="M131.078 396.021V321.26L99.9967 339.198V413.959L57.093 438.721L107.461 249.413L74.0502 268.699L20.0459 470.579V499.481L99.9967 453.322V496.58L131.078 478.642V435.37L152.094 423.235V383.872L131.078 396.021Z" fill="#6271EB"/>
<path opacity="0.3" d="M131.078 396.021V321.26L99.9967 339.198V413.959L57.093 438.721L107.461 249.413L74.0502 268.699L20.0459 470.579V499.481L99.9967 453.322V496.58L131.078 478.642V435.37L152.094 423.235V383.872L131.078 396.021Z" fill="white"/>
<path d="M107.461 249.413L88.0389 238.204L54.6284 257.49L74.0509 268.699L107.461 249.413Z" fill="#6271EB"/>
<path opacity="0.5" d="M107.461 249.413L88.0389 238.204L54.6284 257.49L74.0509 268.699L107.461 249.413Z" fill="white"/>
<path d="M111.656 310.05L131.079 321.26L99.9973 339.198L85.7505 330.985L87.6301 323.929L111.656 310.05Z" fill="#6271EB"/>
<path opacity="0.5" d="M111.656 310.05L131.079 321.26L99.9973 339.198L85.7505 330.985L87.6301 323.929L111.656 310.05Z" fill="white"/>
<path d="M99.997 413.959L80.5882 402.75L64.1485 412.243L57.0933 438.721L99.997 413.959Z" fill="#6271EB"/>
<path opacity="0.5" d="M99.997 413.959L80.5882 402.75L64.1485 412.243L57.0933 438.721L99.997 413.959Z" fill="white"/>
<path d="M152.095 383.872L132.686 372.663L131.079 373.602V396.021L152.095 383.872Z" fill="#6271EB"/>
<path opacity="0.5" d="M131.079 396.021L152.095 383.872L132.686 372.663L131.079 373.602V396.021Z" fill="white"/>
<path d="M20.0465 470.579L0.637695 459.383L54.6283 257.49L74.0508 268.7L20.0465 470.579Z" fill="#6271EB"/>
<path opacity="0.15" d="M20.0465 470.579L0.637695 459.383L54.6283 257.49L74.0508 268.7L20.0465 470.579Z" fill="black"/>
<path d="M460.257 477.502C454.825 475.023 449.078 473.305 443.177 472.394C439.567 471.796 435.88 471.828 432.281 472.49C429.718 473.014 427.235 473.875 424.899 475.05C416.89 479.027 415.732 483.454 415.473 487.2C415.215 490.945 417.285 495.957 423.904 500.588L537.511 580.171C558.189 569.155 577.407 555.593 594.716 539.801C545.356 516.864 464.806 479.45 460.257 477.502Z" fill="#263238"/>
<path d="M496.609 310.014C503.582 311.376 506.306 311.852 509.643 317.627C512.98 323.402 518.646 344.868 520.199 349.322C521.752 353.776 522.215 355.396 521.561 360.354C520.894 365.53 517.843 374.723 516.563 379.763C515.963 382.092 515.568 384.367 515.132 386.75C514.53 389.19 513.756 391.584 512.817 393.914C512.415 395.051 511.714 396.058 510.788 396.829C510.215 397.333 509.426 397.388 508.881 397.851C508.336 398.314 508.186 399.131 507.423 399.512C506.661 399.894 505.598 399.676 504.849 400.112C504.11 400.653 503.342 401.153 502.547 401.61C501.816 401.823 501.147 402.211 500.6 402.74C500.109 403.271 499.646 404.47 498.761 404.375C497.876 404.279 497.617 403.326 497.576 402.509C497.607 400.905 498.151 399.354 499.129 398.082C499.997 396.666 500.948 395.302 501.975 393.996C502.976 392.785 503.692 391.366 504.073 389.842C504.386 388.82 504.291 387.526 502.97 388.112C501.43 388.82 499.796 390.291 497.944 389.964C496.663 389.747 496.582 388.739 497.331 387.894C498.562 386.502 499.691 385.023 500.709 383.468C501.744 381.874 502.602 380.199 503.678 378.646C504.259 377.839 504.891 377.07 505.571 376.344C507.451 374.301 507.369 371.509 507.587 368.908C507.886 365.298 508.145 356.036 508.145 356.036L499.701 335.238L496.609 310.014Z" fill="#FFBDA7"/>
<path d="M507.6 368.908C507.682 364.617 507.859 360.327 508.023 356.036C505.299 349.417 502.384 342.13 499.714 335.238C502.656 342.13 505.517 349.054 508.295 356.009C508.077 360.313 507.886 364.617 507.6 368.908V368.908Z" fill="white"/>
<path d="M449.524 471.536C451.921 470.692 453.705 470.61 453.678 471.795C453.353 473.256 452.836 474.666 452.139 475.99L450.232 478.619L449.319 481.207C449.319 481.207 448.203 482.569 448.134 482.705C448.066 482.841 447.699 477.87 447.699 477.87C447.699 477.87 446.35 472.149 449.524 471.536Z" fill="#263238"/>
<path d="M475.266 370.42C475.266 370.42 469.818 376.889 466.59 389.011C463.612 400.277 461.337 411.718 459.78 423.266C459.003 428.428 457.75 434.939 455.898 445.059C454.468 452.849 449.973 476.739 449.973 476.739C449.973 476.739 452.561 481.043 455.694 482.351C460.188 484.23 464.52 483.372 465.092 479.354C465.092 479.354 468.061 474.615 472.569 462.384C474.736 456.769 476.467 450.995 477.745 445.113C478.191 441.422 478.323 437.699 478.14 433.985L496.228 402.536C498.227 399.091 500.622 395.891 503.365 393.002C505.059 391.268 506.388 389.212 507.274 386.955C510.27 378.783 505.911 367.791 505.911 367.791L475.266 370.42Z" fill="#263238"/>
<path d="M459.848 423.252C456.933 441.163 453.596 459.006 450.042 476.794C453.174 458.924 456.525 441.095 459.848 423.252Z" fill="white"/>
<path d="M452.793 490.563L451.826 490.373C451.894 490.005 459.14 452.713 464.206 437.05C469.273 421.386 482.553 390.278 482.689 389.964L483.602 390.359C483.465 390.659 470.213 421.754 465.16 437.363C460.107 452.972 452.874 490.196 452.793 490.563Z" fill="black"/>
<path d="M499.074 380.894H469.369C468.281 383.531 467.371 386.239 466.644 388.998C463.898 399.37 461.783 409.9 460.311 420.528C461.033 425.391 461.85 430.389 462.599 433.822C464.601 442.893 465.854 449.294 467.434 453.04C468.959 456.206 470.76 459.233 472.814 462.084C474.93 456.583 476.619 450.927 477.868 445.167C478.314 441.476 478.446 437.753 478.263 434.04L495.969 403.326L497.236 398.491C501.635 391.177 501.131 385.688 499.074 380.894Z" fill="black"/>
<path d="M425.171 483.618C424.639 483.372 423.986 485.456 423.931 486.205C423.877 486.955 425.293 490.006 429.012 492.253C432.73 494.5 439.118 495.753 441.515 496.502C443.912 497.251 445.833 499.226 448.992 500.765C451.798 502.128 456.034 502.849 457.886 502.019C458.244 501.805 458.551 501.517 458.786 501.174C459.021 500.831 459.179 500.44 459.248 500.03C459.752 498.491 459.712 498.137 459.521 498.082L425.171 483.618Z" fill="#37474F"/>
<path d="M460.842 494.677C460.598 496.25 460.077 497.767 459.303 499.158C458.762 499.566 458.144 499.862 457.487 500.028C456.83 500.194 456.146 500.227 455.476 500.125C452.592 499.919 449.814 498.95 447.427 497.32C445.603 496.133 443.635 495.186 441.57 494.5C438.729 493.815 435.939 492.932 433.221 491.858C431.193 491.001 429.306 489.844 427.623 488.426C426.261 487.145 424.994 485.701 425.13 483.904C425.436 482.772 426.084 481.762 426.987 481.013C427.889 480.265 429.001 479.814 430.17 479.722C432.407 479.609 434.644 479.947 436.748 480.716C438.792 481.408 440.908 481.865 443.054 482.078C444.525 482.201 446.255 483.441 447.399 482.147C448.761 480.648 449.293 477.107 450.205 475.336C450.355 475.05 450.559 474.737 450.872 474.669C451.186 474.601 451.703 474.982 451.989 475.364C453.323 477.028 455.031 478.354 456.974 479.232C462.232 481.833 464.67 480.458 464.67 480.458L465.16 479.368C465.16 479.368 466.209 479.954 464.874 482.405C463.748 484.421 462.8 486.531 462.041 488.712C461.379 490.638 460.975 492.644 460.842 494.677V494.677Z" fill="#455A64"/>
<path d="M425.171 483.903C426.819 477.802 433.738 479.436 438.205 480.975C439.788 481.533 441.428 481.912 443.095 482.106C441.411 482.03 439.744 481.732 438.137 481.22C433.724 479.858 427.091 478.115 425.171 483.944V483.903Z" fill="white"/>
<path d="M437.729 480.989C435.482 481.193 434.869 484.83 434.869 484.83C436.882 485.911 439.073 486.621 441.338 486.927C442.913 487.2 444.533 486.875 445.881 486.016C447.229 485.157 448.207 483.825 448.625 482.283C449.579 479.245 448.707 474.996 448.53 473.62C448.426 473.147 448.511 472.653 448.765 472.242C449.019 471.83 449.423 471.533 449.892 471.414C449.506 471.45 449.132 471.564 448.793 471.751C448.454 471.938 448.157 472.193 447.92 472.5C447.684 472.806 447.513 473.158 447.419 473.534C447.325 473.909 447.309 474.3 447.372 474.682C447.44 476.317 447.372 479.545 446.677 480.621C445.983 481.697 442.51 482.174 437.729 480.989Z" fill="#455A64"/>
<path d="M494.035 370.42C497.307 374.286 499.221 379.118 499.483 384.176C499.708 389.09 498.167 393.921 495.138 397.797C494.008 414.359 490.739 446.244 490.739 446.244C495.111 450.738 496.187 453.653 498.775 461.716C500.314 466.62 506.089 482.378 507.519 486.764C499.865 487.704 495.697 495.318 495.697 495.318C495.697 495.318 482.213 475.405 475.729 463.691C470.922 455.029 468.701 451.869 467.271 446.748C465.501 440.36 465.024 437.064 463.444 426.317C461.864 415.571 460.352 401.896 459.576 391.3C458.8 380.703 458.214 369.507 458.214 369.507L494.035 370.42Z" fill="#263238"/>
<path d="M495.751 495.276C487.892 483.699 480.183 471.986 473.427 459.727C471.205 456.153 469.296 452.393 467.72 448.491C466.46 444.481 465.495 440.384 464.833 436.233C461.357 414.104 459.156 391.793 458.241 369.412L459.385 386.164C460.42 402.931 462.504 419.616 465.173 436.178C466.14 441.626 467.148 447.251 469.627 452.264C477.577 467.057 486.297 481.423 495.751 495.303V495.276Z" fill="white"/>
<path d="M476.696 451.406C472.733 441.299 467.979 386.287 468.224 367.273H467.23C467.148 373.634 467.625 383.999 468.442 395.372C465.214 393.738 463.13 390.741 463.13 375.677H462.136C462.136 390.823 464.111 394.487 468.524 396.516C470.186 419.044 473.155 445.099 475.77 451.787C479.652 461.675 499.905 495.086 500.096 495.372L500.954 494.854C500.75 494.555 480.551 461.226 476.696 451.406Z" fill="black"/>
<path d="M494.634 493.587C493.422 495.304 492.046 496.516 495.492 498.804C498.216 500.561 498.312 501.977 499.142 503.857C499.683 505.69 499.905 507.602 499.796 509.509C499.796 509.509 504.373 502.604 503.038 498.15C501.703 493.696 494.634 493.587 494.634 493.587Z" fill="#455A64"/>
<path d="M509.303 489.638C510.592 490.998 512.109 492.122 513.784 492.961C514.942 493.683 516.14 494.323 516.508 495.685C516.508 495.835 515.827 496.652 515.841 496.802C515.9 497.452 515.877 498.106 515.773 498.75C515.514 500.997 514.288 502.659 514.016 504.892C513.927 505.784 513.767 506.668 513.539 507.535C513.343 508.59 513.256 509.663 513.28 510.735C513.212 511.852 513.13 512.969 513.076 514.086C513.015 514.561 513.015 515.041 513.076 515.516C513.171 515.993 505.571 519.82 502.507 521.291C502.325 521.379 502.139 521.456 501.948 521.523C500.078 522.031 498.087 521.838 496.35 520.978C490.248 518.758 490.63 516.551 490.63 516.551C490.661 515.637 490.95 514.751 491.463 513.994C491.976 513.238 492.693 512.641 493.531 512.275C493.902 512.058 494.295 511.88 494.702 511.743V511.743C496.22 511.18 497.876 511.099 499.442 511.512C499.751 510.605 499.894 509.65 499.864 508.692C499.989 507.261 500.012 505.823 499.932 504.388C499.662 502.768 499.034 501.228 498.094 499.88C496.8 498.096 495.37 495.794 494.511 494.541C493.653 493.288 493.422 490.264 498.502 486.628C503.378 483.155 506.947 483.904 507.641 485.334C508.028 486.828 508.586 488.272 509.303 489.638V489.638Z" fill="#455A64"/>
<path d="M490.548 516.565C490.548 512.356 495.914 510.245 499.415 511.485C495.833 510.817 491.065 512.479 490.548 516.565Z" fill="white"/>
<path opacity="0.1" d="M496.187 513.691C496.594 512.652 497.363 511.796 498.353 511.28C498.711 511.322 499.067 511.39 499.415 511.485C498.802 512.07 496.609 512.942 496.187 513.691Z" fill="black"/>
<path d="M517.216 497.006C518.578 497.578 517.448 499.73 515.854 503.067C514.414 505.533 513.839 508.409 514.22 511.239C514.547 514.195 513.852 515.639 512.572 516.687C511.292 517.736 501.785 521.89 501.785 521.89C504.045 519.035 505.355 515.544 505.53 511.907C506.048 505.396 506.674 501.215 509.916 498.368C510.924 497.553 512.119 497.001 513.394 496.763C514.668 496.525 515.982 496.609 517.216 497.006V497.006Z" fill="black"/>
<path d="M490.548 516.551C490.698 517.831 494.334 520.419 498.625 520.365C502.915 520.31 503.283 519.398 503.95 514.372C504.618 509.346 505.081 502.359 507.26 499.39C509.439 496.42 512.3 494.622 516.481 495.712C516.958 495.944 518.252 497.238 517.775 498.436C517.775 498.436 517.775 497.483 516.059 496.979C514.588 496.557 512.831 496.597 510.379 498.722C507.505 501.187 506.865 507.003 506.538 511.988C506.211 516.973 504.659 521.754 500.532 522.203C498.75 522.445 496.938 522.294 495.22 521.763C493.503 521.231 491.922 520.331 490.589 519.125C490.331 518.289 490.317 517.396 490.548 516.551Z" fill="#37474F"/>
<path d="M465.95 278.742C465.394 277.959 465.052 277.045 464.956 276.09C464.861 275.135 465.015 274.171 465.405 273.294C466.1 271.523 467.544 269.657 471.752 267.478C476.765 264.89 490.521 263.038 497.331 272.041C498.312 273.403 484.773 298.804 485.441 304.075C481.927 300.384 470.336 287.404 470.336 287.404C467.612 286.233 465.923 285.239 465.337 282.651C465.125 281.316 465.34 279.948 465.95 278.742Z" fill="#263238"/>
<path d="M470.336 287.336C466.25 286.26 463.648 282.678 465.95 278.701C464.207 282.787 466.536 285.756 470.336 287.336Z" fill="white"/>
<path d="M465.95 278.742C464.234 276.862 464.656 273.839 465.95 271.823C467.452 269.867 469.458 268.356 471.752 267.451C470.706 268.053 469.696 268.717 468.728 269.439C465.882 271.414 463.757 275.568 466.004 278.742H465.95Z" fill="white"/>
<path d="M468.02 285.974C468.02 285.974 464.302 292.035 464.724 292.539C465.579 293.219 466.49 293.825 467.448 294.351L468.02 285.974Z" fill="#F0997A"/>
<path d="M468.02 285.974C467.094 287.922 465.977 289.761 465.065 291.695C464.942 292.008 464.683 292.376 464.86 292.594C465.094 292.863 465.37 293.093 465.678 293.275C465.31 293.07 464.697 292.907 464.615 292.416C465.365 290.086 466.517 287.906 468.02 285.974Z" fill="white"/>
<path d="M472.624 274.887C470.131 276.072 467.979 277.979 467.176 283.441C466.972 284.871 468.088 286.818 467.584 288.712C465.419 296.884 467.993 303.694 469.573 305.124C470.635 306.132 476.22 306.581 479.107 305.764C482.771 304.743 490.739 301.147 494.539 295.413C499.006 288.603 499.987 279.613 495.07 275.977C488.137 270.855 475.28 273.634 472.624 274.887Z" fill="#FFBDA7"/>
<path d="M467.203 283.44C467.203 285.293 468.293 287.104 467.666 288.997C466.509 294.269 466.427 300.534 469.6 305.124C466.114 300.684 466.114 294.228 467.448 288.943C468.075 287.145 467.04 285.306 467.203 283.495V283.44Z" fill="white"/>
<path d="M491.679 299.268L493.123 309.306C495.37 309.782 495.574 312.438 494.485 314.441L495.016 317.274L479.652 320.025L477.936 305.982L491.679 299.268Z" fill="#FFBDA7"/>
<path d="M469.9 305.329C471.262 306.051 474.054 306.582 477.949 306.037L477.718 304.048C476.482 304.512 475.212 304.876 473.918 305.138C472.595 305.4 471.241 305.464 469.9 305.329V305.329Z" fill="#F0997A"/>
<path d="M468.946 277.802C468.843 278.981 469.151 280.159 469.82 281.135C470.488 282.111 471.474 282.825 472.61 283.155C472.004 284.46 471.777 285.909 471.956 287.336C472.008 288.18 472.299 288.991 472.796 289.674C473.293 290.357 473.976 290.883 474.762 291.191C475.838 291.559 476.124 291.082 476.547 290.224C477.091 289.012 477.786 287.159 480.387 287.5C483.37 287.908 484.16 292.403 482.417 295.345C482.082 295.967 481.601 296.498 481.015 296.892C480.428 297.286 479.755 297.531 479.053 297.606C478.666 297.6 478.285 297.512 477.935 297.348C477.585 297.183 477.274 296.946 477.023 296.653C477.023 296.653 477.214 300.575 482.267 302.904C485.428 304.585 489.089 305.069 492.578 304.266C494.927 301.657 497.14 298.93 499.211 296.094C504.659 288.14 505.816 273.58 496.487 270.965C496.037 270.842 487.552 269.603 483.411 270.556C470.649 273.28 468.974 277.189 468.946 277.802Z" fill="#263238"/>
<path d="M491.979 269.944C490.85 270.756 490.076 271.97 489.813 273.335C489.696 274.016 489.761 274.715 490 275.363C490.239 276.011 490.644 276.584 491.175 277.026C493.899 279.164 498.149 276.672 498.653 273.512C499.225 269.78 494.73 267.9 491.979 269.944Z" fill="#6271EB"/>
<path d="M494.198 271.128C491.406 272.844 489.663 276.89 491.147 279.804C491.556 280.594 492.128 281.302 492.509 282.133C493.585 284.789 492.019 287.718 491.678 290.564C491.445 292.824 491.836 295.104 492.809 297.156C493.735 298.668 495.778 299.05 496.595 300.63C497.154 301.719 496.772 303.054 496.99 304.266C497.467 306.868 500.545 308.121 503.201 308.175C504.324 308.275 505.455 308.126 506.514 307.74C507.573 307.354 508.535 306.74 509.33 305.942C509.939 304.996 510.603 304.086 511.319 303.217C512.899 301.733 515.405 301.855 517.148 300.493C517.793 299.924 518.298 299.214 518.624 298.418C518.95 297.622 519.088 296.761 519.028 295.903C518.867 294.184 518.406 292.506 517.666 290.946C516.535 288.222 517.434 286.465 518.006 283.7C518.275 282.206 518.027 280.666 517.304 279.332C516.582 277.998 515.427 276.949 514.029 276.358C512.109 275.596 509.766 275.718 508.213 274.343C507.477 273.471 506.786 272.561 506.143 271.619C503.228 268.418 497.481 269.126 494.198 271.128Z" fill="#263238"/>
<path d="M505.163 317.519C504.551 315.854 503.581 314.344 502.322 313.094C501.063 311.844 499.545 310.886 497.876 310.286C496.514 309.878 493.123 309.306 493.123 309.306C493.899 311.076 492.591 312.248 490.29 312.779C487.334 313.473 482.826 313.542 479.761 311.512L478.508 310.736C475.164 311.558 471.864 312.549 468.62 313.705C467.952 314.018 464.261 315.258 458.459 328.292C455.98 333.863 456.716 339.515 461.278 343.533C461.537 347.061 459.263 355.002 459.263 355.002C458.106 361.629 457.84 368.38 458.473 375.078C458.473 375.078 461.197 382.297 482.798 382.215C499.51 382.215 507.914 374.043 507.914 374.043C507.71 369.957 501.281 355.614 501.921 350.793C502.915 343.765 509.358 331.166 505.163 317.519Z" fill="#6271EB"/>
<path d="M468.619 313.705C473.019 317.287 473.359 322.204 472.705 328.837C472.052 335.47 465.391 356.2 464.029 360.709C462.667 365.217 460.72 366.783 457.287 370.433C453.855 374.084 445.833 379.886 441.842 383.209C439.99 384.748 438.342 386.355 436.585 388.031C434.665 389.65 432.635 391.133 430.51 392.471C429.516 393.151 428.36 393.555 427.159 393.642C426.397 393.642 425.729 393.288 425.007 393.343C424.286 393.397 423.645 393.969 422.855 393.833C422.065 393.697 421.275 392.893 420.417 392.798C419.508 392.811 418.598 392.77 417.693 392.675C416.976 392.409 416.203 392.33 415.446 392.444C414.738 392.58 413.662 393.275 412.994 392.689C412.327 392.103 412.695 391.163 413.131 390.469C414.094 389.169 415.45 388.214 416.999 387.745C418.531 387.111 420.1 386.57 421.698 386.124C423.201 385.721 424.596 384.99 425.784 383.986C426.628 383.345 427.309 382.229 425.906 381.942C424.245 381.602 422.052 381.834 420.731 380.485C419.832 379.559 420.363 378.701 421.466 378.456C423.279 378.055 425.06 377.518 426.792 376.849C428.562 376.168 430.238 375.309 432.022 374.683C432.973 374.376 433.942 374.126 434.923 373.934C437.647 373.375 439.213 371.074 440.902 369.099C443.272 366.375 447.345 361.172 450.11 357.44L454.291 337.214C456.933 326.236 457.859 317.028 468.619 313.705Z" fill="#FFBDA7"/>
<path d="M472.678 328.837C471.616 334.83 470.155 340.745 468.306 346.543C468.17 347.02 468.02 347.483 467.884 347.905C466.209 353.585 464.588 358.706 463.989 360.695C462.763 364.781 461.033 366.47 458.159 369.466L457.246 370.42C453.664 374.22 445.792 379.872 441.801 383.209C439.962 384.748 438.301 386.342 436.557 388.017C434.633 389.64 432.599 391.129 430.469 392.471C429.474 393.146 428.318 393.545 427.119 393.628C426.356 393.697 425.688 393.274 424.967 393.329C424.245 393.383 423.605 393.955 422.815 393.819C422.025 393.683 421.235 392.879 420.377 392.798C419.467 392.806 418.557 392.76 417.652 392.661C416.934 392.401 416.162 392.322 415.405 392.43C415.187 392.43 414.928 392.58 414.656 392.675L414.316 392.784C414.162 392.841 414.002 392.878 413.839 392.893C413.686 392.923 413.529 392.92 413.378 392.882C413.228 392.844 413.087 392.774 412.967 392.675C412.218 392.021 412.654 391.163 413.09 390.469C414.052 389.168 415.409 388.213 416.958 387.744C418.49 387.107 420.059 386.561 421.657 386.11C423.16 385.707 424.555 384.977 425.743 383.972C426.587 383.332 427.268 382.228 425.865 381.929C424.204 381.588 422.011 381.82 420.703 380.485C419.791 379.545 420.322 378.687 421.425 378.442C423.239 378.043 425.019 377.506 426.751 376.835C428.521 376.154 430.21 375.296 431.981 374.683C432.929 374.366 433.899 374.116 434.882 373.934C437.606 373.375 439.172 371.06 440.861 369.098C443.231 366.374 447.304 361.158 450.082 357.426L454.25 337.2C456.892 326.167 457.859 316.96 468.579 313.65C469.685 314.547 470.61 315.647 471.303 316.892C473.128 320.106 473.169 324.015 472.678 328.837Z" fill="#FFBDA7"/>
<path d="M412.913 392.689C412.659 392.431 412.508 392.09 412.488 391.729C412.468 391.367 412.58 391.011 412.804 390.727C413.825 388.752 416.045 387.908 418.007 387.241C419.311 386.628 420.682 386.171 422.093 385.879C423.431 385.465 424.689 384.824 425.811 383.985C424.75 384.938 423.509 385.67 422.161 386.137C419.441 386.805 416.827 387.85 414.397 389.243C413.499 389.965 411.932 391.476 412.967 392.634L412.913 392.689Z" fill="white"/>
<path d="M420.731 380.54C419.042 378.606 422.311 378.36 423.537 377.952C426.778 377.121 429.638 375.337 432.826 374.438C434.459 374.188 436.023 373.598 437.416 372.708C439.636 370.951 442.019 367.423 443.858 365.203L449.987 357.399C451.349 350.589 453.515 339.979 455.136 333.059C456.865 324.887 459.521 316.157 468.62 313.705C459.657 316.252 457.042 324.928 455.381 333.114C453.746 340.142 451.785 350.425 450.246 357.63L444.062 365.421C442.169 367.655 439.84 371.114 437.538 372.926C436.127 373.819 434.545 374.408 432.894 374.656C429.707 375.541 426.805 377.284 423.564 378.061C422.324 378.456 419.083 378.633 420.731 380.58V380.54Z" fill="white"/>
<path opacity="0.3" d="M499.415 402.305C499.414 402.834 499.56 403.352 499.837 403.803C500.123 403.449 500.368 403.013 500.613 402.741C501.161 402.211 501.829 401.823 502.561 401.61C503.355 401.154 504.124 400.654 504.863 400.112C505.598 399.676 506.579 399.935 507.437 399.513C508.295 399.09 508.322 398.341 508.894 397.851C509.466 397.361 510.256 397.333 510.801 396.83C511.728 396.058 512.429 395.051 512.831 393.915C513.77 391.584 514.543 389.19 515.146 386.751C515.582 384.367 515.977 382.092 516.576 379.763C517.856 374.724 520.907 365.53 521.575 360.355C522.215 355.397 521.752 353.762 520.213 349.322C518.674 344.882 512.994 323.444 509.657 317.628C506.497 312.18 503.869 311.444 497.658 310.218L497.29 310.123L496.663 309.987L496.173 309.878L495.547 309.755L495.179 309.687L494.28 309.51L493.599 309.388H493.422H493.136L492.414 304.362H492.591C493.694 303 494.906 301.706 496.173 300.18C496.328 300.359 496.46 300.556 496.568 300.766C497.14 301.856 496.745 303.177 496.963 304.389C497.44 307.004 500.518 308.243 503.174 308.312C504.297 308.405 505.428 308.253 506.487 307.865C507.545 307.477 508.506 306.862 509.303 306.064C509.917 305.121 510.581 304.212 511.292 303.34C512.872 301.856 515.378 301.978 517.135 300.616C517.778 300.044 518.281 299.33 518.605 298.532C518.928 297.734 519.064 296.872 519.001 296.013C518.846 294.292 518.385 292.613 517.639 291.055C516.508 288.331 517.407 286.574 517.979 283.822C518.249 282.329 518.004 280.788 517.284 279.452C516.564 278.115 515.412 277.063 514.016 276.467C512.082 275.705 509.739 275.841 508.186 274.452C507.454 273.58 506.768 272.67 506.129 271.728C503.95 269.344 500.205 269.14 497.072 270.011C496.298 269.475 495.371 269.203 494.43 269.235C490.18 265.939 484.637 265.149 479.883 265.53C478.094 266.282 476.477 267.389 475.13 268.786C470.853 273.022 468.32 279.246 469.437 285.13C469.654 286.233 469.995 287.296 470.172 288.399C470.622 291.218 469.995 294.092 470.009 296.952C470.022 299.813 470.921 302.972 473.4 304.375C475.28 305.424 477.581 305.22 479.72 305.492C483.234 305.942 482.825 308.107 482.961 311.09C483.021 311.547 482.984 312.011 482.852 312.452C482.798 312.611 482.715 312.759 482.607 312.888C481.695 314.018 479.107 314.468 477.963 314.849C475.695 315.399 473.48 316.146 471.343 317.083C470.362 317.581 469.513 318.305 468.864 319.194C466.263 322.844 465.16 327.189 464.057 331.452C463.035 335.402 461.959 339.352 460.829 343.275C459.812 346.834 458.749 350.375 457.641 353.899C456.779 357.104 455.487 360.179 453.8 363.038C451.689 366.266 448.666 368.772 445.942 371.523C439.772 377.761 434.61 385.743 426.356 388.739C423.182 389.883 419.777 390.196 416.522 391.068C415.391 391.368 414.111 391.967 413.798 393.016C413.961 393.001 414.121 392.964 414.275 392.907L414.615 392.798C414.887 392.703 415.146 392.607 415.364 392.553C416.121 392.445 416.893 392.524 417.612 392.784C418.516 392.883 419.426 392.929 420.336 392.921C421.194 393.002 421.834 393.792 422.774 393.942C423.713 394.092 424.136 393.506 424.926 393.452C425.716 393.397 426.288 393.819 427.078 393.751C428.277 393.668 429.433 393.269 430.428 392.594C432.558 391.251 434.592 389.763 436.516 388.14C438.26 386.465 439.921 384.871 441.76 383.332C445.751 379.995 453.623 374.343 457.206 370.542L458.118 369.589C460.978 366.606 462.708 364.931 463.934 360.831C464.533 358.843 466.154 353.721 467.829 348.042L468.252 346.68C468.88 347.446 469.21 348.414 469.178 349.404C469.682 356.023 471.262 362.724 472.338 369.317C473.1 374.016 473.877 378.715 474.231 383.454C474.503 386.887 474.544 390.265 474.599 393.751L474.925 418.268C474.925 419.63 474.925 420.992 474.994 422.436C475.011 426.294 475.275 430.147 475.784 433.972C476.228 437.343 476.961 440.67 477.976 443.915C478.222 444.705 478.48 445.495 478.766 446.285C481.586 454.116 486.012 461.267 490.275 468.322C494.601 475.861 498.48 483.647 501.894 491.64C502.593 493.038 503.106 494.521 503.419 496.053C503.855 498.695 503.133 501.378 502.929 504.048C502.724 506.718 503.024 509.278 502.929 511.893C502.988 514.525 502.226 517.11 500.749 519.289C499.685 520.661 498.211 521.658 496.541 522.136C497.85 522.364 499.184 522.405 500.504 522.258C501.266 522.188 501.999 521.936 502.643 521.523C506.013 520.101 509.304 518.501 512.504 516.729C513.784 515.707 514.479 514.25 514.165 511.28C513.772 508.452 514.343 505.573 515.786 503.108C516.66 501.611 517.329 500.003 517.775 498.328C518.115 497.17 516.917 495.971 516.413 495.74C516.072 494.378 514.874 493.724 513.689 493.016C512.017 492.177 510.505 491.052 509.221 489.692C508.484 488.321 507.912 486.867 507.519 485.361C507.344 485.03 507.074 484.759 506.742 484.585C504.645 478.551 500.082 466.007 498.734 461.744C496.2 453.667 495.07 450.752 490.698 446.257C490.698 446.257 493.109 422.722 494.511 405.601L496.2 402.645C496.377 402.332 496.554 402.032 496.745 401.733C498.636 398.65 500.846 395.774 503.337 393.152C503.583 392.893 503.828 392.594 504.073 392.308C503.705 392.921 503.351 393.533 502.942 394.133C501.322 396.612 499.292 399.268 499.415 402.305ZM507.75 374.22L507.914 374.07C507.832 373.184 507.663 372.308 507.41 371.455C507.097 370.297 506.661 368.922 506.184 367.437C506.034 366.974 505.871 366.497 505.707 366.075C505.149 364.413 504.55 362.643 504.005 360.927C503.828 360.395 503.664 359.864 503.514 359.347C503.365 358.829 503.16 358.203 503.01 357.658C502.861 357.113 502.793 356.881 502.697 356.5C502.697 356.377 502.629 356.241 502.602 356.119C502.575 355.996 502.479 355.615 502.425 355.383C502.316 354.934 502.22 354.511 502.152 354.103L502.071 353.653C502.064 353.549 502.064 353.444 502.071 353.34C502.031 353.142 502.004 352.942 501.989 352.741V352.332C501.976 352.087 501.976 351.842 501.989 351.597C501.974 351.361 501.974 351.124 501.989 350.888C502.357 348.774 502.862 346.686 503.501 344.637C503.937 343.057 504.427 341.368 504.863 339.57C506.157 341.981 507.41 344.392 508.663 346.816C509.739 348.733 510.651 350.738 511.387 352.809C512.885 357.522 512.517 362.629 511.945 367.546C511.347 373.155 510.104 378.676 508.241 383.999C508.639 380.735 508.473 377.427 507.75 374.22V374.22Z" fill="black"/>
</svg>
