<svg width="79" height="80" viewBox="0 0 79 80" fill="none" xmlns="http://www.w3.org/2000/svg">
<path d="M69.9102 14.4451C70.4361 16.9752 70.7032 19.5578 70.9439 22.1452C71.0188 23.3676 72.9342 23.4335 73.0685 22.1909C73.444 19.0444 74.5832 1.94007 68.8581 4.15401C67.6639 4.68919 67.1298 6.09076 67.6647 7.28464C68.6736 9.56141 69.4018 11.9832 69.9102 14.4451Z" fill="#6271EB"/>
<path d="M14.1982 61.1785C22.4872 61.3119 28.6254 52.1066 25.4332 44.4611C23.1506 38.8087 16.7878 38.615 12.1502 41.4522C9.54004 43.1886 11.8702 47.0114 14.6102 45.4859C22.1028 40.3567 24.4477 50.3353 20.0298 55.0306C16.3614 59.2637 9.21936 57.8462 5.75274 53.9985C-0.985503 46.0508 4.70203 32.3664 14.1826 29.5512C15.1522 29.2575 15.6615 28.1605 15.257 27.2306C14.8834 26.357 13.8721 25.9516 12.9986 26.3252C-2.90848 32.3961 -6.12903 59.6046 14.1982 61.1785Z" fill="#6271EB"/>
<path d="M77.0823 52.5985C71.4079 38.3225 49.6259 32.6772 40.6087 46.7514C40.1518 42.9351 38.6012 39.1844 36.2268 36.1352C56.2617 34.3168 47.6568 8.51327 34.0723 18.5792C32.8234 19.6977 34.2509 21.6005 35.6797 20.7035C41.418 16.5019 46.7947 24.5871 42.1923 29.0081C37.6126 32.914 30.7805 31.8069 27.6107 26.6947C16.9246 10.5423 36.3964 -3.11963 50.9768 6.03421C59.0993 10.8258 59.6975 21.6225 58.449 30.0407C58.2674 31.8399 60.8307 32.1545 61.0927 30.3642C62.4556 21.2342 61.7593 9.98789 53.5265 4.16339C43.0374 -3.67617 25.0696 -0.312625 21.2046 13.1403C15.9961 37.2502 41.3898 31.08 37.4493 52.9523C34.7602 68.4273 17.97 77.7772 3.12816 74.0786C1.80785 73.7763 0.488458 74.6659 0.276117 76.0047C0.0659439 77.2959 0.946877 78.5125 2.23872 78.7168C15.8697 81.2341 32.1519 74.5435 37.6728 61.5788C40.7009 73.644 57.3621 75.3585 63.1021 64.5527C66.6332 56.9895 56.0154 50.61 50.2847 55.9322C48.9019 57.0744 50.7831 59.1601 52.0701 57.9085C55.9261 54.2847 63.4836 59.073 60.2189 63.9565C52.5723 74.502 37.5174 66.3488 40.7899 54.1172C47.2567 35.9021 71.3858 42.3771 74.5509 59.1475C75.6789 64.4721 74.3035 70.1491 71.8284 74.9533C71.0899 76.4626 73.1306 77.6941 74.117 76.3161C79.0502 69.4842 80.6187 60.4114 77.0823 52.5985Z" fill="#6271EB"/>
</svg>
